<?xml version="1.0" encoding="UTF-8" standalone="no"?>
<!-- Created with Inkscape (http://www.inkscape.org/) -->

<svg
   width="98.348785mm"
   height="91.712646mm"
   viewBox="0 0 98.348785 91.712646"
   version="1.1"
   id="svg9830"
   sodipodi:docname="ammo.svg"
   inkscape:version="1.2.1 (9c6d41e410, 2022-07-14)"
   xmlns:inkscape="http://www.inkscape.org/namespaces/inkscape"
   xmlns:sodipodi="http://sodipodi.sourceforge.net/DTD/sodipodi-0.dtd"
   xmlns="http://www.w3.org/2000/svg"
   xmlns:svg="http://www.w3.org/2000/svg">
  <sodipodi:namedview
     id="namedview9832"
     pagecolor="#505050"
     bordercolor="#eeeeee"
     borderopacity="1"
     inkscape:showpageshadow="0"
     inkscape:pageopacity="0"
     inkscape:pagecheckerboard="0"
     inkscape:deskcolor="#505050"
     inkscape:document-units="mm"
     showgrid="false"
     inkscape:zoom="1.4912879"
     inkscape:cx="116.34239"
     inkscape:cy="181.72212"
     inkscape:window-width="1920"
     inkscape:window-height="1021"
     inkscape:window-x="-8"
     inkscape:window-y="-8"
     inkscape:window-maximized="1"
     inkscape:current-layer="layer1" />
  <defs
     id="defs9827" />
  <g
     inkscape:label="Calque 1"
     inkscape:groupmode="layer"
     id="layer1"
     transform="translate(-0.63342192,-1.4243946)">
    <path
       d="m 1.714048,77.475812 c 11.695155,-12.143279 19.637568,-11.79741 27.779394,-11.796117 8.141826,0.0013 45.078511,0 45.078511,0 1.111713,0 2.012972,0.901197 2.012972,2.012984 v 23.431313 c 0,1.111701 -0.901259,2.012972 -2.012972,2.012972 0,0 -36.936685,-0.0013 -45.078511,0 -8.141826,0.0012 -16.254885,0.0062 -27.779394,-11.796191 -1.33416874,-1.886148 -1.33416874,-1.853208 0,-3.824635 z m 0,-28.282603 C 13.92093,61.50706 21.351616,60.990656 29.493442,60.9894 c 8.141826,-0.0013 45.078511,0 45.078511,0 1.111713,0 2.012972,-0.901259 2.012972,-2.013046 V 35.585293 c 0,-1.111713 -0.901259,-2.012984 -2.012972,-2.012984 0,0 -36.939424,0.01902 -45.078511,0 -8.139087,-0.01902 -16.419831,-0.07607 -27.779394,11.695537 -1.3892534,1.90988 -1.41770047,1.92038 0,3.925363 z m 0,-35.972335 c -1.4194484,1.672961 -1.46206361,1.682624 0,3.824709 11.865739,11.119739 19.637568,11.797484 27.779394,11.796191 8.141826,-0.0013 45.078511,0 45.078511,0 1.111713,0 2.012972,-0.901271 2.012972,-2.012972 V 3.4377284 c 0,-1.1117868 -0.901259,-2.0129718 -2.012972,-2.0129718 0,0 -36.936685,0.00123 -45.078511,0 C 21.351616,1.4235256 13.067973,1.2482519 1.714048,13.220874 Z m 80.519953,54.512045 v 23.391073 c 0,1.111701 0.901271,2.012972 2.013058,2.012972 h 10.064945 c 2.590886,-0.06844 4.660088,-2.179136 4.670206,-4.770786 V 70.510896 c 0,-2.638142 -2.13273,-4.77992 -4.77086,-4.790949 H 84.146405 c -1.096043,0.02277 -1.972954,0.916781 -1.972733,2.012972 z m 0,-32.207967 v 23.451402 c 0,1.111787 0.901271,2.013046 2.013058,2.013046 h 10.064945 c 2.590886,-0.06844 4.660088,-2.179137 4.670206,-4.77086 V 38.343108 C 98.974824,35.71288 96.841651,33.58335 94.21135,33.572309 H 84.146405 c -1.096043,0.0229 -1.972954,0.916793 -1.972733,2.012984 z m 0,-32.2080406 V 26.828802 c 0,1.111701 0.901271,2.012972 2.013058,2.012972 h 10.064945 c 2.598727,-0.06844 4.670969,-2.19147 4.670206,-4.790949 V 6.1955431 C 98.974824,3.5652417 96.841651,1.435712 94.21135,1.4247566 H 84.146405 c -1.096043,0.022772 -1.972954,0.9167071 -1.972733,2.0129718 z"
       id="path6421"
       sodipodi:nodetypes="czsssszcccczsssszcccczsssszccssccccccccssccccccccssccccccc"
       style="stroke-width:2.013" />
  </g>
</svg>
