<?xml version="1.0" encoding="UTF-8" standalone="no"?>
<svg
   viewBox="0 0 48.856827 45.560226"
   x="0px"
   y="0px"
   version="1.1"
   id="svg418"
   sodipodi:docname="noun-ammo-3186870.svg"
   width="48.856827"
   height="45.560226"
   inkscape:version="1.2.1 (9c6d41e410, 2022-07-14)"
   xmlns:inkscape="http://www.inkscape.org/namespaces/inkscape"
   xmlns:sodipodi="http://sodipodi.sourceforge.net/DTD/sodipodi-0.dtd"
   xmlns="http://www.w3.org/2000/svg"
   xmlns:svg="http://www.w3.org/2000/svg">
  <defs
     id="defs422" />
  <sodipodi:namedview
     id="namedview420"
     pagecolor="#ffffff"
     bordercolor="#000000"
     borderopacity="0.25"
     inkscape:showpageshadow="2"
     inkscape:pageopacity="0.0"
     inkscape:pagecheckerboard="0"
     inkscape:deskcolor="#d1d1d1"
     showgrid="false"
     inkscape:zoom="0.52149125"
     inkscape:cx="130.39528"
     inkscape:cy="235.86206"
     inkscape:window-width="1680"
     inkscape:window-height="987"
     inkscape:window-x="1912"
     inkscape:window-y="9"
     inkscape:window-maximized="1"
     inkscape:current-layer="g412" />
  <title
     id="title408">Artboard 16</title>
  <g
     data-name="Layer 17"
     id="g412"
     transform="rotate(-90,23.818507,30.961681)">
    <path
       d="m 17,7.68 c 6.032447,5.809803 5.861274,5.710735 5.86,13.8 v 22.393694 c 0,0.552285 -0.447715,1 -1,1 H 10.22 c -0.552285,0 -1,-0.447715 -1,-1 V 21.48 c -0.0013,-8.089265 -0.003,-8.074943 5.86,-13.8 0.936996,-0.6627628 0.920631,-0.6627628 1.9,0 z m 14.05,0 c -6.117193,6.064041 -5.861274,5.710735 -5.86,13.8 v 22.393694 c 0,0.552285 0.447715,1 1,1 h 11.62 c 0.552285,0 1,-0.447715 1,-1 V 21.48 C 38.8274,13.393457 38.84598,13.323103 33,7.68 32.051234,6.9898494 32.045995,6.9757124 31.05,7.68 Z m 17.87,0 c -0.831064,-0.7051357 -0.835885,-0.7263221 -1.9,0 -5.523973,5.894549 -5.861274,5.710735 -5.86,13.8 v 22.393694 c 0,0.552285 0.447715,1 1,1 h 11.62 c 0.552285,0 1,-0.447715 1,-1 V 21.48 c 0.0013,-8.089265 0.0877,-8.159688 -5.86,-13.8 z m -27.08,40 H 10.22 c -0.552285,0 -1,0.447715 -1,1 v 5 c 0.03245,1.287073 1.082528,2.314999 2.37,2.32 h 8.87 c 1.310542,1.2e-5 2.374494,-1.059469 2.38,-2.37 v -5 c -0.01089,-0.544459 -0.455432,-0.980109 -1,-0.98 z m 16,0 H 26.19 c -0.552285,0 -1,0.447715 -1,1 v 5 c 0.03245,1.287073 1.082528,2.314999 2.37,2.32 h 8.88 c 1.306639,-0.0055 2.364521,-1.063361 2.37,-2.37 v -5 c -0.01089,-0.544459 -0.455432,-0.980109 -1,-0.98 z m 16,0 H 42.16 c -0.552285,0 -1,0.447715 -1,1 v 5 c 0.03256,1.290948 1.088642,2.32041 2.38,2.32 h 8.87 c 1.306639,-0.0055 2.364521,-1.063361 2.37,-2.37 v -5 c -0.01089,-0.544459 -0.455432,-0.980109 -1,-0.98 z"
       id="path410"
       sodipodi:nodetypes="ccssssccccccssssccccccsssscccssccccccccssccccccccssccccccc" />
  </g>
</svg>
