<?xml version="1.0" encoding="UTF-8" standalone="no"?>
<!-- Created with Inkscape (http://www.inkscape.org/) -->

<svg
   width="85"
   height="85"
   viewBox="0 0 85 85"
   xml:space="preserve"
   version="1.1"
   id="svg6"
   sodipodi:docname="caps.svg"
   inkscape:version="1.2.1 (9c6d41e410, 2022-07-14)"
   xmlns:inkscape="http://www.inkscape.org/namespaces/inkscape"
   xmlns:sodipodi="http://sodipodi.sourceforge.net/DTD/sodipodi-0.dtd"
   xmlns="http://www.w3.org/2000/svg"
   xmlns:svg="http://www.w3.org/2000/svg"><defs
     id="defs3"><clipPath
       clipPathUnits="userSpaceOnUse"
       id="clipPath6519"><ellipse
         style="fill:#ff00ff;fill-rule:evenodd;stroke-width:62.6469;stroke-linecap:square;stroke-linejoin:bevel;paint-order:stroke markers fill"
         id="ellipse6521"
         cx="42.284367"
         cy="42.284367"
         rx="36.725067"
         ry="37.398922" /></clipPath></defs><sodipodi:namedview
     id="namedview8"
     pagecolor="#ffffff"
     bordercolor="#000000"
     borderopacity="0.25"
     inkscape:showpageshadow="2"
     inkscape:pageopacity="0.0"
     inkscape:pagecheckerboard="0"
     inkscape:deskcolor="#d1d1d1"
     showgrid="false"
     inkscape:zoom="2.968"
     inkscape:cx="-2.190027"
     inkscape:cy="50.202156"
     inkscape:window-width="1920"
     inkscape:window-height="1021"
     inkscape:window-x="-8"
     inkscape:window-y="-8"
     inkscape:window-maximized="1"
     inkscape:current-layer="layer1" /><path
     id="path6851"
     style="fill:#000000;fill-rule:evenodd;stroke-width:56.201;stroke-linecap:square;stroke-linejoin:bevel;paint-order:stroke markers fill;fill-opacity:1"
     d="M 42.453125 0 C 39.534001 2.0792981e-09 37.637373 3.5126159 34.884766 4.078125 C 32.132157 4.643634 28.523554 2.2618236 25.994141 3.3359375 C 23.464727 4.4100514 23.085478 9.6558264 20.835938 11.181641 C 18.586397 12.707455 14.465724 10.512983 12.552734 12.433594 C 10.639745 14.354205 12.006089 18.960247 10.486328 21.21875 C 8.9665686 23.477253 4.5620391 23.388244 3.4921875 25.927734 C 2.4223358 28.467225 4.8074058 31.847754 4.2441406 34.611328 C 3.6808755 37.374901 0.16796882 39.522372 0.16796875 42.453125 C 0.16796868 45.383878 3.561735 47.648536 4.125 50.412109 C 4.688265 53.175684 2.4223359 56.437072 3.4921875 58.976562 C 4.5620392 61.516053 9.4431306 62.0247 10.962891 64.283203 C 12.48265 66.541706 10.639744 70.550093 12.552734 72.470703 C 14.465723 74.391314 18.943819 73.032779 21.193359 74.558594 C 23.4429 76.084408 23.464727 80.496199 25.994141 81.570312 C 28.523554 82.644426 32.251299 80.260663 35.003906 80.826172 C 37.756514 81.391681 39.534001 84.90625 42.453125 84.90625 C 45.372249 84.90625 47.507157 81.39168 50.259766 80.826172 C 53.012373 80.260662 56.382695 82.644426 58.912109 81.570312 C 61.441523 80.496199 61.46335 76.203549 63.712891 74.677734 C 65.962431 73.15192 70.438572 74.391314 72.351562 72.470703 C 74.264552 70.550092 72.898208 65.826862 74.417969 63.568359 C 75.937728 61.309857 80.344211 61.516053 81.414062 58.976562 C 82.483914 56.437072 79.860563 53.294823 80.423828 50.53125 C 80.987094 47.767676 84.736328 45.383878 84.736328 42.453125 C 84.736328 39.522372 80.987093 37.851465 80.423828 35.087891 C 79.860563 32.324317 82.483914 28.467225 81.414062 25.927734 C 80.344211 23.388244 75.342026 23.477253 73.822266 21.21875 C 72.302503 18.960247 74.264553 14.354205 72.351562 12.433594 C 70.438573 10.512986 65.247588 12.111752 62.998047 10.585938 C 60.748506 9.0601232 61.441523 4.4100513 58.912109 3.3359375 C 56.382696 2.2618236 52.297529 4.6436341 49.544922 4.078125 C 46.792314 3.512616 45.372249 -2.0792979e-09 42.453125 0 z M 50.9375 13.542969 C 56.996152 13.542969 63.566406 17.296073 63.566406 23.525391 C 63.566406 29.754708 53.582826 36.923828 50.9375 36.923828 C 50.6815 36.923828 50.511111 36.839238 50.425781 36.753906 C 50.340451 36.668576 50.339844 36.582776 50.339844 36.412109 C 50.339844 34.534781 56.398438 26.172022 56.398438 22.332031 C 56.398438 21.4787 56.142997 20.795062 55.375 20.539062 C 55.204333 20.453733 55.033341 20.455078 54.777344 20.455078 C 48.974691 20.455078 28.751953 47.675577 28.751953 57.574219 C 28.751953 58.598217 29.006928 59.451497 29.433594 60.048828 C 29.945592 60.816826 30.970003 61.158203 32.25 61.158203 C 38.564652 61.158203 52.388658 53.137809 59.556641 42.8125 C 59.641971 42.64183 59.811755 42.554688 59.982422 42.554688 C 60.665086 42.554688 61.519531 44.092305 61.519531 45.542969 C 61.519531 45.969634 61.434341 46.394995 61.263672 46.736328 C 59.386344 50.405652 47.182641 70.033203 34.638672 70.033203 C 27.812023 70.033203 18.767578 61.756529 18.767578 52.199219 C 19.364911 42.897908 35.492534 16.78414 47.951172 13.882812 C 48.889836 13.626811 49.913503 13.542969 50.9375 13.542969 z " />
</svg>
