<?xml version="1.0" encoding="UTF-8" standalone="no"?>
<!-- Created with Inkscape (http://www.inkscape.org/) -->

<svg
  width="92.133804mm"
  height="86.417877mm"
  viewBox="0 0 92.133805 86.417879"
  version="1.1"
  id="svg10230"
  inkscape:version="1.2.1 (9c6d41e410, 2022-07-14)"
  sodipodi:docname="rad.svg"
  xml:space="preserve"
  xmlns:inkscape="http://www.inkscape.org/namespaces/inkscape"
  xmlns:sodipodi="http://sodipodi.sourceforge.net/DTD/sodipodi-0.dtd"
  xmlns="http://www.w3.org/2000/svg"
  xmlns:svg="http://www.w3.org/2000/svg">
   <g
     inkscape:label="Calque 1"
     inkscape:groupmode="layer"
     id="layer1"
     transform="translate(-3.1743573,-6.4380088)">
    <circle
      style="fill:currentColor;fill-rule:evenodd;stroke-width:11.282;stroke-linecap:square;stroke-linejoin:bevel;paint-order:stroke markers fill"
      id="path10442"
      cx="49.246601"
      cy="46.502563"
      r="8" />
    <path
      id="rect10498"
      style="fill:currentColor;fill-rule:evenodd;stroke-width:13.2292;stroke-linecap:square;stroke-linejoin:bevel;paint-order:stroke markers fill"
      d="M 26.786929,6.7444989 43.020796,35.486434 c 0,0 -3.108009,1.883013 -4.801333,5.050304 -1.693324,3.167291 -1.674473,6.12711 -1.674473,6.12711 H 3.1901543 c 0,0 -0.6295019,-11.143295 6.0591372,-23.403461 C 15.937931,11.000221 26.786929,6.7444989 26.786929,6.7444989 Z"
      sodipodi:nodetypes="cczcczc" />
    <path
      id="rect10498-7"
      style="fill:currentColor;fill-rule:evenodd;stroke-width:13.2292;stroke-linecap:square;stroke-linejoin:bevel;paint-order:stroke markers fill"
      d="m 95.160919,46.571132 -33.009592,0.06389 c 0,0 -0.118102,-3.632012 -2.049007,-6.660326 -1.930904,-3.028314 -4.520108,-4.462505 -4.520108,-4.462505 L 71.929591,6.4380088 c 0,0 10.021723,4.9126732 17.430323,16.7516852 7.408599,11.839014 5.801005,23.381438 5.801005,23.381438 z"
      sodipodi:nodetypes="cczcczc"
      inkscape:transform-center-x="-25.890311"
      inkscape:transform-center-y="-19.876429" />
    <path
      id="rect10498-7-3"
      style="fill:currentColor;fill-rule:evenodd;stroke-width:13.2292;stroke-linecap:square;stroke-linejoin:bevel;paint-order:stroke markers fill"
      d="M 26.100147,85.894208 42.900356,57.479595 c 0,0 3.183146,1.753009 6.772868,1.639095 3.589721,-0.113914 6.144936,-1.607821 6.144936,-1.607821 l 16.651092,28.901314 c 0,0 -9.341194,6.108305 -23.30343,6.433138 -13.962238,0.32483 -23.065675,-6.951113 -23.065675,-6.951113 z"
      sodipodi:nodetypes="cczcczc"
      inkscape:transform-center-x="0.49475346"
      inkscape:transform-center-y="28.836776" />
   </g>
</svg>
