<?xml version="1.0" encoding="UTF-8" standalone="no"?>
<svg
   version="1.1"
   viewBox="-5 -10 90.246307 93.749313"
   id="svg138"
   sodipodi:docname="noun-weight-6731680.svg"
   width="90.246307"
   height="93.749313"
   inkscape:version="1.2.1 (9c6d41e410, 2022-07-14)"
   xmlns:inkscape="http://www.inkscape.org/namespaces/inkscape"
   xmlns:sodipodi="http://sodipodi.sourceforge.net/DTD/sodipodi-0.dtd"
   xmlns="http://www.w3.org/2000/svg"
   xmlns:svg="http://www.w3.org/2000/svg">
  <defs
     id="defs142" />
  <sodipodi:namedview
     id="namedview140"
     pagecolor="#ffffff"
     bordercolor="#000000"
     borderopacity="0.25"
     inkscape:showpageshadow="2"
     inkscape:pageopacity="0.0"
     inkscape:pagecheckerboard="0"
     inkscape:deskcolor="#d1d1d1"
     showgrid="false"
     inkscape:zoom="5.4962963"
     inkscape:cx="45.121294"
     inkscape:cy="54.40027"
     inkscape:window-width="1680"
     inkscape:window-height="987"
     inkscape:window-x="1912"
     inkscape:window-y="9"
     inkscape:window-maximized="1"
     inkscape:current-layer="svg138" />
  <path
     d="m 84.966058,72.093013 -12.5,-50 c -1.0391,-4.1719 -4.793,-7.1016 -9.0938,-7.0938 h -3.5 c 0.375,-1.5352 0.5625,-3.1094 0.5625,-4.6875 0,-7.2578005 -3.8711,-13.9610005 -10.156,-17.5900005 -6.2849,-3.6289995 -14.027,-3.6288995 -20.312,0 -6.285,3.6289 -10.156,10.332 -10.156,17.5900005 0,1.5781 0.1875,3.1523 0.5625,4.6875 h -3.5 c -4.3008,-0.0078 -8.0547,2.9219 -9.0938,7.0938 l -12.5,50 c -0.69922,2.8008 -0.070312,5.7695 1.707,8.0469 1.7734,2.2734 4.5,3.6055 7.3867,3.6094 h 71.5 c 2.8867,-0.0039 5.6133,-1.3359 7.3867,-3.6094 1.7773,-2.2773 2.4062,-5.2461 1.707,-8.0469 z m -55.781,-61.781 c 0,-6.0391005 4.8984,-10.9380005 10.938,-10.9380005 6.0396,0 10.938,4.8984 10.938,10.9380005 0.0078,1.625 -0.35547,3.2266 -1.0625,4.6875 h -19.75 c -0.70703,-1.4609 -1.0703,-3.0625 -1.0625,-4.6875 z"
     id="path132" />
</svg>
