<?xml version="1.0" encoding="UTF-8" standalone="no"?>
<svg
   version="1.1"
   x="0px"
   y="0px"
   viewBox="0 0 85 85"
   xml:space="preserve"
   id="svg262"
   sodipodi:docname="noun-bottle-cap-4922512.svg"
   width="85"
   height="85"
   inkscape:version="1.2.1 (9c6d41e410, 2022-07-14)"
   xmlns:inkscape="http://www.inkscape.org/namespaces/inkscape"
   xmlns:sodipodi="http://sodipodi.sourceforge.net/DTD/sodipodi-0.dtd"
   xmlns="http://www.w3.org/2000/svg"
   xmlns:svg="http://www.w3.org/2000/svg"><defs
     id="defs266" /><sodipodi:namedview
     id="namedview264"
     pagecolor="#ffffff"
     bordercolor="#000000"
     borderopacity="0.25"
     inkscape:showpageshadow="2"
     inkscape:pageopacity="0.0"
     inkscape:pagecheckerboard="0"
     inkscape:deskcolor="#d1d1d1"
     showgrid="false"
     inkscape:zoom="5.936"
     inkscape:cx="38.325472"
     inkscape:cy="49.528302"
     inkscape:window-width="1680"
     inkscape:window-height="987"
     inkscape:window-x="1912"
     inkscape:window-y="9"
     inkscape:window-maximized="1"
     inkscape:current-layer="svg262" /><path
     id="path256"
     d="M 42.5 0 C 40.261002 0 38.46353 1.3610792 37.019531 2.4550781 C 36.236532 3.0480775 35.348593 3.719172 34.808594 3.8261719 C 34.212594 3.9411718 33.101093 3.6553904 32.121094 3.4003906 C 30.303096 2.9263911 28.243467 2.3905633 26.230469 3.2265625 C 24.185471 4.0755617 23.10153 5.9284548 22.144531 7.5644531 C 21.642532 8.4234523 21.072656 9.3997972 20.597656 9.7167969 C 20.109657 10.043797 18.980327 10.200844 17.986328 10.339844 C 16.11833 10.599843 14.002217 10.893314 12.449219 12.445312 C 10.89722 13.998311 10.601797 16.114424 10.341797 17.982422 C 10.202797 18.976421 10.04575 20.10575 9.71875 20.59375 C 9.4007503 21.06975 8.4273585 21.637626 7.5683594 22.140625 C 5.931361 23.097624 4.0755148 24.183518 3.2285156 26.228516 C 2.3935165 28.242514 2.9303442 30.301142 3.4023438 32.119141 C 3.6573435 33.10014 3.9451249 34.211641 3.828125 34.806641 C 3.7211251 35.34664 3.0500307 36.234579 2.4570312 37.017578 C 1.3610323 38.462577 0 40.261002 0 42.5 C 0 44.738998 1.3600792 46.53647 2.4550781 47.980469 C 3.0480775 48.763468 3.7211251 49.651407 3.828125 50.191406 C 3.9461249 50.785406 3.6563904 51.897907 3.4003906 52.878906 C 2.9273911 54.695904 2.3915633 56.755533 3.2265625 58.769531 C 4.0745617 60.814529 5.9284548 61.899423 7.5644531 62.857422 C 8.4244523 63.359421 9.3997503 63.928297 9.71875 64.404297 C 10.04475 64.892296 10.200844 66.019673 10.339844 67.013672 C 10.599843 68.88167 10.894267 70.998783 12.447266 72.550781 C 14.000264 74.10378 16.11833 74.399203 17.986328 74.658203 C 18.981327 74.797203 20.108704 74.95525 20.595703 75.28125 C 21.071703 75.59925 21.640579 76.574595 22.142578 77.433594 C 23.099577 79.070592 24.185471 80.924438 26.230469 81.773438 C 28.244467 82.607437 30.303142 82.072609 32.119141 81.599609 C 33.10014 81.34361 34.213594 81.052875 34.808594 81.171875 C 35.348593 81.278875 36.234579 81.951922 37.017578 82.544922 C 38.462577 83.639921 40.261002 85 42.5 85 C 44.738998 85 46.53647 83.638921 47.980469 82.544922 C 48.763468 81.951922 49.651407 81.280828 50.191406 81.173828 C 50.787406 81.055828 51.897907 81.34461 52.878906 81.599609 C 54.695904 82.071609 56.755533 82.607437 58.769531 81.773438 C 60.814529 80.924438 61.89847 79.071545 62.855469 77.435547 C 63.357468 76.576548 63.927344 75.600203 64.402344 75.283203 C 64.890343 74.956203 66.019673 74.799156 67.013672 74.660156 C 68.88167 74.400157 70.997783 74.106686 72.550781 72.554688 C 74.10278 71.001689 74.398203 68.885576 74.658203 67.017578 C 74.797203 66.023579 74.95425 64.89425 75.28125 64.40625 C 75.59925 63.93025 76.572641 63.362374 77.431641 62.859375 C 79.068639 61.902376 80.924485 60.816482 81.771484 58.771484 C 82.606484 56.757486 82.069656 54.698858 81.597656 52.880859 C 81.342657 51.89986 81.054875 50.788359 81.171875 50.193359 C 81.278875 49.65336 81.949969 48.765421 82.542969 47.982422 C 83.638968 46.537423 85 44.738998 85 42.5 C 85 40.261002 83.639921 38.46353 82.544922 37.019531 C 81.952922 36.235532 81.280828 35.348593 81.173828 34.808594 C 81.055828 34.214594 81.34361 33.102093 81.599609 32.121094 C 82.072609 30.304096 82.608437 28.244467 81.773438 26.230469 C 80.925438 24.185471 79.071545 23.100577 77.435547 22.142578 C 76.575548 21.640579 75.602203 21.071703 75.283203 20.595703 C 74.957203 20.107704 74.799156 18.980327 74.660156 17.986328 C 74.400157 16.11833 74.105733 14.001217 72.552734 12.449219 C 70.999736 10.89622 68.883623 10.600797 67.015625 10.341797 C 66.020626 10.202797 64.89325 10.04475 64.40625 9.71875 C 63.93025 9.4007503 63.359421 8.4254054 62.857422 7.5664062 C 61.900423 5.9294079 60.816482 4.0755617 58.771484 3.2265625 C 56.757486 2.3915633 54.698811 2.9283911 52.882812 3.4003906 C 51.900813 3.6553904 50.786359 3.9441249 50.193359 3.828125 C 49.65336 3.7211251 48.765421 3.0480775 47.982422 2.4550781 C 46.536423 1.3600792 44.738998 2.9605918e-16 42.5 0 z M 50.9375 13.542969 C 56.996158 13.542969 63.566406 17.296067 63.566406 23.525391 C 63.566406 29.754715 53.582829 36.923828 50.9375 36.923828 C 50.6815 36.923828 50.511111 36.839236 50.425781 36.753906 C 50.340451 36.668572 50.339844 36.582776 50.339844 36.412109 C 50.339844 34.534779 56.398438 26.172026 56.398438 22.332031 C 56.398438 21.478699 56.142998 20.795062 55.375 20.539062 C 55.204333 20.453733 55.033342 20.455078 54.777344 20.455078 C 48.974685 20.455078 28.751953 47.675567 28.751953 57.574219 C 28.751953 58.598218 29.006928 59.451496 29.433594 60.048828 C 29.945593 60.816827 30.970002 61.158203 32.25 61.158203 C 38.564658 61.158203 52.388651 53.137819 59.556641 42.8125 C 59.641975 42.64183 59.811755 42.554688 59.982422 42.554688 C 60.665087 42.554688 61.519531 44.092304 61.519531 45.542969 C 61.519531 45.969635 61.434339 46.394995 61.263672 46.736328 C 59.386342 50.405656 47.182654 70.033203 34.638672 70.033203 C 27.812016 70.033203 18.767578 61.756539 18.767578 52.199219 C 19.364911 42.897899 35.492522 16.784142 47.951172 13.882812 C 48.889837 13.62681 49.913502 13.542969 50.9375 13.542969 z " /></svg>
