<?xml version="1.0" encoding="UTF-8" standalone="no"?>
<svg
   version="1.1"
   x="0px"
   y="0px"
   viewBox="0 0 90.000008 55.727001"
   enable-background="new 0 0 100 100"
   xml:space="preserve"
   id="svg2146"
   sodipodi:docname="noun-gun-479957.svg"
   width="90.000008"
   height="55.727001"
   inkscape:version="1.2.1 (9c6d41e410, 2022-07-14)"
   xmlns:inkscape="http://www.inkscape.org/namespaces/inkscape"
   xmlns:sodipodi="http://sodipodi.sourceforge.net/DTD/sodipodi-0.dtd"
   xmlns="http://www.w3.org/2000/svg"
   xmlns:svg="http://www.w3.org/2000/svg"><defs
     id="defs2150" /><sodipodi:namedview
     id="namedview2148"
     pagecolor="#505050"
     bordercolor="#eeeeee"
     borderopacity="1"
     inkscape:showpageshadow="0"
     inkscape:pageopacity="0"
     inkscape:pagecheckerboard="0"
     inkscape:deskcolor="#505050"
     showgrid="false"
     inkscape:zoom="6.696"
     inkscape:cx="45.176225"
     inkscape:cy="16.427718"
     inkscape:window-width="1920"
     inkscape:window-height="1021"
     inkscape:window-x="-8"
     inkscape:window-y="-8"
     inkscape:window-maximized="1"
     inkscape:current-layer="svg2146" /><path
     d="M 0.724,4.615 H 3.257 V 3.619 C 3.257,3.22 3.582,2.895 3.981,2.895 H 4.727 C 4.907,1.268 6.2849997,0 7.9609997,0 h 1.447 C 9.8069997,0 10.132,0.325 10.132,0.724 v 2.171 h 39.263 c 0.199,0 0.362,-0.162 0.362,-0.362 V 1.809 c 0,-0.4 0.324,-0.724 0.723,-0.724 h 24.064 c 6.754,0 6.007,7.339 8.925,11.546 1.522,2.198 6.273,2.295 6.273,4.738 0,2.442 -5.475,-0.109 -8.708,4.604 -2.558,3.73 5.295,22.7 8.682,30.449 0.8,1.831 -0.145,3.305 -2.145,3.305 h -19.36 c -0.999,0 -2.01,-0.785 -2.259,-1.752 L 61.956,38.419 c -0.249,-0.968 -1.26,-1.752 -2.259,-1.752 H 44.75 c -4.692,0 -8.994,-3.789 -9.585,-8.444 L 34.393,22.146 C 34.265,21.154 33.354,20.329 32.355,20.301 19.89,19.948 9.1859997,19.463 5.0639997,19.266 4.067,19.218 3.257,18.367 3.257,17.369 V 11.217 H 0.724 C 0.324,11.217 0,10.893 0,10.494 V 5.338 C 0,4.938 0.325,4.615 0.724,4.615 Z m 36.823,19.403 0.489,3.842 c 0.415,3.262 3.427,5.915 6.714,5.915 h 12.395 c 1.998,0 3.215,-1.569 2.718,-3.505 l -2.006,-7.811 c -0.249,-0.968 -1.26,-1.752 -2.259,-1.754 -1.031,-0.004 -2.071,-0.011 -3.113,-0.02 -0.027,0.169 -0.05,0.34 -0.083,0.508 -0.148,0.78 -0.378,1.588 -0.665,2.341 -0.172,0.449 -0.362,0.875 -0.556,1.249 -0.19,0.382 -0.421,0.774 -0.735,1.245 -0.279,0.407 -0.576,0.788 -0.888,1.135 -0.345,0.381 -0.67,0.7 -0.98,0.961 -0.314,0.274 -0.663,0.538 -1.025,0.778 -0.335,0.229 -0.661,0.408 -0.972,0.579 -0.018,0.011 -0.036,0.02 -0.054,0.028 l -0.199,0.096 c -0.226,0.111 -0.439,0.214 -0.67,0.305 -0.078,0.028 -0.152,0.06 -0.221,0.089 -0.154,0.062 -0.314,0.127 -0.448,0.167 l -0.547,0.179 c -0.113,0.037 -0.226,0.054 -0.337,0.054 -0.013,0 -0.025,0 -0.04,0 -0.585,-0.017 -1.053,-0.496 -1.053,-1.086 -10e-4,-0.472 0.298,-0.872 0.718,-1.022 l 0.484,-0.218 c 0.079,-0.032 0.164,-0.081 0.258,-0.132 0.079,-0.042 0.162,-0.087 0.245,-0.129 0.127,-0.065 0.285,-0.166 0.453,-0.271 l 0.172,-0.108 c 0.233,-0.163 0.474,-0.332 0.707,-0.53 0.261,-0.216 0.497,-0.439 0.715,-0.675 0.21,-0.22 0.424,-0.479 0.649,-0.792 0.198,-0.275 0.387,-0.581 0.56,-0.905 0.823,-1.535 1.022,-3.161 1.071,-3.801 0.002,-0.026 0,-0.052 0.002,-0.078 -2.781,-0.034 -5.574,-0.081 -8.335,-0.138 -2.001,-0.046 -3.417,1.52 -3.164,3.504 z"
     id="path2140"
     style="fill:#ff0000;fill-opacity:1" /></svg>
