<!-- Generated by scripts/build-icon-sprite.js - Do not edit manually -->
<svg xmlns="http://www.w3.org/2000/svg" style="display:none">
<symbol id="icon-ammo" viewBox="0 0 98.348785 91.712646"><sodipodi:namedview
     id="namedview9832"
     pagecolor="#505050"
     bordercolor="#eeeeee"
     borderopacity="1"
     inkscape:showpageshadow="0"
     inkscape:pageopacity="0"
     inkscape:pagecheckerboard="0"
     inkscape:deskcolor="#505050"
     inkscape:document-units="mm"
     showgrid="false"
     inkscape:zoom="1.4912879"
     inkscape:cx="116.34239"
     inkscape:cy="181.72212"
     inkscape:window-width="1920"
     inkscape:window-height="1021"
     inkscape:window-x="-8"
     inkscape:window-y="-8"
     inkscape:window-maximized="1"
     inkscape:current-layer="layer1" />
  <defs
     id="defs9827" />
      <g
          inkscape:label="Calque 1"
          inkscape:groupmode="layer"
          id="layer1"
          transform="translate(-0.63342192,-1.4243946)">
         <path
             d="m 1.714048,77.475812 c 11.695155,-12.143279 19.637568,-11.79741 27.779394,-11.796117 8.141826,0.0013 45.078511,0 45.078511,0 1.111713,0 2.012972,0.901197 2.012972,2.012984 v 23.431313 c 0,1.111701 -0.901259,2.012972 -2.012972,2.012972 0,0 -36.936685,-0.0013 -45.078511,0 -8.141826,0.0012 -16.254885,0.0062 -27.779394,-11.796191 -1.33416874,-1.886148 -1.33416874,-1.853208 0,-3.824635 z m 0,-28.282603 C 13.92093,61.50706 21.351616,60.990656 29.493442,60.9894 c 8.141826,-0.0013 45.078511,0 45.078511,0 1.111713,0 2.012972,-0.901259 2.012972,-2.013046 V 35.585293 c 0,-1.111713 -0.901259,-2.012984 -2.012972,-2.012984 0,0 -36.939424,0.01902 -45.078511,0 -8.139087,-0.01902 -16.419831,-0.07607 -27.779394,11.695537 -1.3892534,1.90988 -1.41770047,1.92038 0,3.925363 z m 0,-35.972335 c -1.4194484,1.672961 -1.46206361,1.682624 0,3.824709 11.865739,11.119739 19.637568,11.797484 27.779394,11.796191 8.141826,-0.0013 45.078511,0 45.078511,0 1.111713,0 2.012972,-0.901271 2.012972,-2.012972 V 3.4377284 c 0,-1.1117868 -0.901259,-2.0129718 -2.012972,-2.0129718 0,0 -36.936685,0.00123 -45.078511,0 C 21.351616,1.4235256 13.067973,1.2482519 1.714048,13.220874 Z m 80.519953,54.512045 v 23.391073 c 0,1.111701 0.901271,2.012972 2.013058,2.012972 h 10.064945 c 2.590886,-0.06844 4.660088,-2.179136 4.670206,-4.770786 V 70.510896 c 0,-2.638142 -2.13273,-4.77992 -4.77086,-4.790949 H 84.146405 c -1.096043,0.02277 -1.972954,0.916781 -1.972733,2.012972 z m 0,-32.207967 v 23.451402 c 0,1.111787 0.901271,2.013046 2.013058,2.013046 h 10.064945 c 2.590886,-0.06844 4.660088,-2.179137 4.670206,-4.77086 V 38.343108 C 98.974824,35.71288 96.841651,33.58335 94.21135,33.572309 H 84.146405 c -1.096043,0.0229 -1.972954,0.916793 -1.972733,2.012984 z m 0,-32.2080406 V 26.828802 c 0,1.111701 0.901271,2.012972 2.013058,2.012972 h 10.064945 c 2.598727,-0.06844 4.670969,-2.19147 4.670206,-4.790949 V 6.1955431 C 98.974824,3.5652417 96.841651,1.435712 94.21135,1.4247566 H 84.146405 c -1.096043,0.022772 -1.972954,0.9167071 -1.972733,2.0129718 z"
             id="path6421"
             sodipodi:nodetypes="czsssszcccczsssszcccczsssszccssccccccccssccccccccssccccccc"
             style="stroke-width:2.013;fill:currentColor" />
      </g></symbol>
<symbol id="icon-caps" viewBox="0 0 85 85"><path style="fill:currentColor;fill-rule:evenodd;stroke-width:56.201;stroke-linecap:square;stroke-linejoin:bevel;paint-order:stroke markers fill;fill-opacity:1" d="M 42.453125 0 C 39.534001 2.0792981e-09 37.637373 3.5126159 34.884766 4.078125 C 32.132157 4.643634 28.523554 2.2618236 25.994141 3.3359375 C 23.464727 4.4100514 23.085478 9.6558264 20.835938 11.181641 C 18.586397 12.707455 14.465724 10.512983 12.552734 12.433594 C 10.639745 14.354205 12.006089 18.960247 10.486328 21.21875 C 8.9665686 23.477253 4.5620391 23.388244 3.4921875 25.927734 C 2.4223358 28.467225 4.8074058 31.847754 4.2441406 34.611328 C 3.6808755 37.374901 0.16796882 39.522372 0.16796875 42.453125 C 0.16796868 45.383878 3.561735 47.648536 4.125 50.412109 C 4.688265 53.175684 2.4223359 56.437072 3.4921875 58.976562 C 4.5620392 61.516053 9.4431306 62.0247 10.962891 64.283203 C 12.48265 66.541706 10.639744 70.550093 12.552734 72.470703 C 14.465723 74.391314 18.943819 73.032779 21.193359 74.558594 C 23.4429 76.084408 23.464727 80.496199 25.994141 81.570312 C 28.523554 82.644426 32.251299 80.260663 35.003906 80.826172 C 37.756514 81.391681 39.534001 84.90625 42.453125 84.90625 C 45.372249 84.90625 47.507157 81.39168 50.259766 80.826172 C 53.012373 80.260662 56.382695 82.644426 58.912109 81.570312 C 61.441523 80.496199 61.46335 76.203549 63.712891 74.677734 C 65.962431 73.15192 70.438572 74.391314 72.351562 72.470703 C 74.264552 70.550092 72.898208 65.826862 74.417969 63.568359 C 75.937728 61.309857 80.344211 61.516053 81.414062 58.976562 C 82.483914 56.437072 79.860563 53.294823 80.423828 50.53125 C 80.987094 47.767676 84.736328 45.383878 84.736328 42.453125 C 84.736328 39.522372 80.987093 37.851465 80.423828 35.087891 C 79.860563 32.324317 82.483914 28.467225 81.414062 25.927734 C 80.344211 23.388244 75.342026 23.477253 73.822266 21.21875 C 72.302503 18.960247 74.264553 14.354205 72.351562 12.433594 C 70.438573 10.512986 65.247588 12.111752 62.998047 10.585938 C 60.748506 9.0601232 61.441523 4.4100513 58.912109 3.3359375 C 56.382696 2.2618236 52.297529 4.6436341 49.544922 4.078125 C 46.792314 3.512616 45.372249 -2.0792979e-09 42.453125 0 z M 50.9375 13.542969 C 56.996152 13.542969 63.566406 17.296073 63.566406 23.525391 C 63.566406 29.754708 53.582826 36.923828 50.9375 36.923828 C 50.6815 36.923828 50.511111 36.839238 50.425781 36.753906 C 50.340451 36.668576 50.339844 36.582776 50.339844 36.412109 C 50.339844 34.534781 56.398438 26.172022 56.398438 22.332031 C 56.398438 21.4787 56.142997 20.795062 55.375 20.539062 C 55.204333 20.453733 55.033341 20.455078 54.777344 20.455078 C 48.974691 20.455078 28.751953 47.675577 28.751953 57.574219 C 28.751953 58.598217 29.006928 59.451497 29.433594 60.048828 C 29.945592 60.816826 30.970003 61.158203 32.25 61.158203 C 38.564652 61.158203 52.388658 53.137809 59.556641 42.8125 C 59.641971 42.64183 59.811755 42.554688 59.982422 42.554688 C 60.665086 42.554688 61.519531 44.092305 61.519531 45.542969 C 61.519531 45.969634 61.434341 46.394995 61.263672 46.736328 C 59.386344 50.405652 47.182641 70.033203 34.638672 70.033203 C 27.812023 70.033203 18.767578 61.756529 18.767578 52.199219 C 19.364911 42.897908 35.492534 16.78414 47.951172 13.882812 C 48.889836 13.626811 49.913503 13.542969 50.9375 13.542969 z " /></symbol>
<symbol id="icon-crosshair" viewBox="0 0 85 85"><ellipse
       style="fill:none;stroke:currentColor;stroke-width:9.37731;stroke-linecap:square;stroke-linejoin:bevel"
       cx="42.500019"
       cy="42.500031"
       id="ellipse2"
       rx="27.811329"
       ry="27.811342" />
    <rect
       style="fill:currentColor;stroke:none;stroke-width:0.993234"
       width="8.5"
       height="30"
       x="38.25"
       y="0"
       id="rect4" />
    <rect
       style="fill:currentColor;stroke:none;stroke-width:0.993235"
       width="8.5"
       height="30"
       x="38.25"
       y="-85"
       id="rect4-1"
       transform="rotate(90)"
       inkscape:transform-center-x="-29.189778"
       inkscape:transform-center-y="-1.319901e-06" />
    <rect
       style="fill:currentColor;stroke:none;stroke-width:0.993234"
       width="8.5"
       height="30"
       x="-46.75"
       y="-85"
       id="rect4-6"
       inkscape:transform-center-y="29.189788"
       transform="scale(-1)"
       inkscape:transform-center-x="4.3953298e-06" />
    <rect
       style="fill:currentColor;stroke:none;stroke-width:0.993231"
       width="8.5"
       height="30"
       x="-46.75"
       y="0"
       id="rect4-14"
       inkscape:transform-center-x="29.238045"
       inkscape:transform-center-y="0.32852579"
       transform="rotate(-90)" /></symbol>
<symbol id="icon-energy" viewBox="0 0 56.991337 95.467552"><g
     inkscape:label="Calque 1"
     inkscape:groupmode="layer"
     id="layer1"
     transform="translate(-21.380563,-3.2455134)">
    <path
      id="rect12779"
      style="fill:currentColor;fill-rule:evenodd;stroke-width:15.0315;stroke-linecap:square;stroke-linejoin:bevel;paint-order:stroke markers fill"
      d="m 47.475624,3.2455134 h 25.87966 c 1.49893,0 3.498326,1.4334647 2.705649,2.7056489 L 46.964159,52.649194 c -0.792677,1.272184 -1.206719,2.705649 -2.705649,2.705649 H 24.225352 c -1.498929,0 -3.373719,-1.363833 -2.705649,-2.705649 L 44.769975,5.9511623 c 0.668071,-1.3418163 1.20672,-2.7056489 2.705649,-2.7056489 z"
      sodipodi:nodetypes="sssssssss" />
    <path
      id="rect13145"
      style="fill:currentColor;fill-rule:evenodd;stroke-width:18.0174;stroke-linecap:square;stroke-linejoin:bevel;paint-order:stroke markers fill"
      d="m 49.303595,33.99815 h 26.123649 c 1.498929,0 3.670849,1.558837 2.705648,2.705649 -14.950983,17.186708 -50.474564,61.204082 -53.070484,62.009265 -1.49893,0 -3.883351,-1.300847 -3.304439,-2.683472 L 46.597946,36.703799 c 0.578911,-1.382625 1.206719,-2.705649 2.705649,-2.705649 z"
      sodipodi:nodetypes="ssccsss" />
   </g></symbol>
<symbol id="icon-gun" viewBox="0 0 90.037476 59.695835"><sodipodi:namedview
     id="namedview7"
     pagecolor="#505050"
     bordercolor="#eeeeee"
     borderopacity="1"
     inkscape:showpageshadow="0"
     inkscape:pageopacity="0"
     inkscape:pagecheckerboard="0"
     inkscape:deskcolor="#505050"
     inkscape:document-units="mm"
     showgrid="false"
     inkscape:zoom="1.1072813"
     inkscape:cx="356.27805"
     inkscape:cy="-17.159145"
     inkscape:window-width="1920"
     inkscape:window-height="1021"
     inkscape:window-x="-8"
     inkscape:window-y="-8"
     inkscape:window-maximized="1"
     inkscape:current-layer="layer1" />
  <defs
     id="defs2">
    <clipPath
       clipPathUnits="userSpaceOnUse"
       id="clipPath6259">
      <rect
         style="fill:currentColor;fill-rule:evenodd;stroke:none;stroke-width:24.7341;stroke-linecap:square;stroke-linejoin:bevel;paint-order:stroke markers fill"
         id="rect6261"
         width="9.9687691"
         height="5.4714322"
         x="7.3498554"
         y="5.6589527"
         rx="3.9917312"
         ry="2.4605114" />
    </clipPath>
  </defs>
  <g
     inkscape:label="Calque 1"
     inkscape:groupmode="layer"
     id="layer1"
     transform="translate(-2.2581797,-5.6933588)">
    <rect
       style="fill:currentColor;fill-rule:evenodd;stroke:none;stroke-width:9.68844;stroke-linecap:square;stroke-linejoin:bevel;paint-order:stroke markers fill"
       id="rect6252"
       width="6.5050445"
       height="4.5197387"
       x="6.5895271"
       y="4.0128512"
       rx="0"
       ry="0"
       clip-path="url(#clipPath6259)"
       transform="translate(-1.54178,0.52800686)" />
    <rect
       style="fill:currentColor;fill-rule:evenodd;stroke:none;stroke-width:13.2292;stroke-linecap:square;stroke-linejoin:bevel;paint-order:stroke markers fill"
       id="rect2570"
       width="9.2836275"
       height="6.5236301"
       x="2.2581797"
       y="9.0327187"
       ry="1.1532261"
       rx="0.975806" />
    <rect
       style="fill:currentColor;fill-rule:evenodd;stroke:none;stroke-width:13.2292;stroke-linecap:square;stroke-linejoin:bevel;paint-order:stroke markers fill"
       id="rect3298"
       width="75.021744"
       height="15.556349"
       x="5.7709036"
       y="7.7781744"
       ry="1.4193548"
       rx="2.3951614" />
    <rect
       style="fill:currentColor;fill-rule:evenodd;stroke:none;stroke-width:13.2292;stroke-linecap:square;stroke-linejoin:bevel;paint-order:stroke markers fill"
       id="rect3300"
       width="67.494484"
       height="3.2618151"
       x="13.29817"
       y="21.578161"
       ry="1.4193543"
       rx="5.0564537" />
    <rect
       style="fill:currentColor;fill-rule:evenodd;stroke:none;stroke-width:9.25826;stroke-linecap:square;stroke-linejoin:bevel;paint-order:stroke markers fill"
       id="rect3302"
       width="15.975372"
       height="12.545443"
       x="53.443588"
       y="5.7709036"
       ry="0.77658325"
       rx="0.77658302" />
    <path
       id="rect6350"
       style="fill:currentColor;fill-rule:evenodd;stroke-width:11.6631;stroke-linecap:square;stroke-linejoin:bevel;paint-order:stroke markers fill"
       d="m 67.3857,5.7235947 7.52184,-0.029869 c 3.216194,-0.012771 5.060619,0.3023883 7.426309,1.8017066 1.641834,1.0405556 2.615656,6.5147127 3.135371,8.0788517 1.095761,3.297809 -2.404859,2.694753 -6.111262,2.694753 H 67.3857 c -3.706403,0 -6.690258,-2.797633 -6.690258,-6.272721 0,-3.475088 2.983884,-6.258004 6.690258,-6.2727213 z"
       sodipodi:nodetypes="ssssssss" />
    <rect
       style="fill:currentColor;fill-rule:evenodd;stroke:none;stroke-width:13.2292;stroke-linecap:square;stroke-linejoin:bevel;paint-order:stroke markers fill"
       id="rect289"
       width="2.6189141"
       height="4.815423"
       x="9.6994858"
       y="6.1856012"
       rx="0.68181676"
       ry="0.68181676" />
    <path
       id="path6318"
       style="fill:currentColor;fill-rule:evenodd;stroke-width:16.0602;stroke-linecap:square;stroke-linejoin:bevel;paint-order:stroke markers fill"
       transform="matrix(0.97341856,-0.22903343,0.18828274,0.98211487,0,0)"
       d="m 55.865559,35.947208 c 6.816963,-1.682757 13.323257,-7.016577 20.313635,-5.509702 2.000168,0.431164 3.837202,2.078845 4.855542,3.876119 0.644,1.136599 0.31163,2.559811 0.492501,3.837365 0.18224,1.287228 -0.153483,2.772301 0.597116,3.856281 0.757651,1.094164 2.84693,0.800056 3.46147,1.976812 0.190986,0.365711 0.174887,0.944889 -0.125819,1.204638 -0.987551,0.853044 -2.694963,-0.370059 -3.998186,-0.145622 -1.254918,0.216118 -2.4398,0.763692 -3.520878,1.409611 -1.181141,0.705705 -2.705781,1.337647 -3.157751,2.644955 -0.380661,1.741372 2.957454,13.509873 3.86741,19.419868 0.451056,2.817573 1.235184,15.429086 -0.613085,15.211308 C 74.095868,82.88599 62.548779,82.37609 55.865559,78.654865 55.54905,78.478632 55.216415,78.222117 55.096294,77.882173 c -0.883688,-2.500848 0.803324,-5.150939 0.907869,-7.761942 0.152125,-3.799309 -0.2937,-7.62402 -0.410928,-11.435783 -0.173155,-5.630296 0.641837,-11.139731 -0.43194,-16.889706 -0.282832,-1.514539 -2.271066,-3.968854 -4.024783,-4.794005 -2.2564,-1.061671 3.162428,-0.666811 4.729047,-1.053529 z"
       sodipodi:nodetypes="aaaaaaaaacccaaaassa" />
    <path
       id="rect6353"
       style="fill:currentColor;fill-rule:evenodd;stroke-width:13.2292;stroke-linecap:square;stroke-linejoin:bevel;paint-order:stroke markers fill"
       d="m 82.922949,9.4839894 c 1.34116,-0.2894413 2.682319,-0.5788826 4.023479,-0.8683239 0.600319,0.021589 0.862713,0.2121405 1.103987,0.4449324 0.174329,0.4644482 0.179696,1.1400991 0.0161,1.5834271 -0.499119,0.907979 -0.998238,1.815958 -1.497357,2.723937 -0.315859,1.070485 -0.631718,2.140969 -0.947577,3.211454 -1.50658,-0.429446 -3.013159,-0.858891 -4.519739,-1.288337 0.607036,-1.935697 1.214071,-3.871393 1.821107,-5.8070896 z"
       sodipodi:nodetypes="cccccccc" />
    <path
       id="rect6356"
       style="fill:currentColor;fill-rule:evenodd;stroke-width:13.2292;stroke-linecap:square;stroke-linejoin:bevel;paint-order:stroke markers fill"
       d="m 36.618963,24.815924 c -2.813011,-0.285106 10.598864,-0.434688 7.910777,-0.01493 -0.619534,0.09674 -1.176025,0.57596 -1.531226,1.092693 -0.323748,0.470976 -0.354119,1.093309 -0.429897,1.659779 -0.27727,2.07271 -0.861758,6.018384 0.431097,8.288681 0.813039,1.427724 0.772425,3.581683 -0.575709,3.286369 -1.065147,-0.233325 -1.74252,-1.561147 -2.205878,-2.598566 -1.241876,-2.780456 -0.588441,-6.07645 -1.241102,-9.050879 -0.122888,-0.560051 -0.139625,-1.200543 -0.501304,-1.645456 -0.445203,-0.54766 -1.154566,-0.94652 -1.856758,-1.01769 z"
       sodipodi:nodetypes="ssasssaaas" />
    <path
       id="rect6360"
       style="fill:currentColor;fill-rule:evenodd;stroke-width:13.2292;stroke-linecap:square;stroke-linejoin:bevel;paint-order:stroke markers fill"
       d="m 42.462309,35.027974 c 0.629876,1.058215 0.902715,1.366798 1.615703,1.668501 5.178403,2.191254 11.528161,0.921447 16.868812,-0.01457 1.05158,-0.184303 2.200592,-1.990311 2.287637,-3.02677 0.274103,-3.26376 2.468891,9.468246 1.33684,7.864034 -0.625682,-0.886644 -1.91026,-1.710498 -2.995197,-1.687575 -2.031307,0.04292 -15.642885,1.295357 -19.166596,-0.716846 0,0 -0.644019,-5.257457 0.0528,-4.086774 z"
       sodipodi:nodetypes="sassssss" />
    <path
       id="rect6367"
       style="fill:currentColor;fill-rule:evenodd;stroke-width:13.2292;stroke-linecap:square;stroke-linejoin:bevel;paint-order:stroke markers fill"
       d="m 52.568698,24.79092 c 0.05803,-0.711908 2.408314,-0.796273 2.389486,0 -0.01936,0.818753 -0.700378,4.270859 -1.917735,5.969854 -1.276423,1.781431 -4.21345,3.675572 -5.280592,3.916646 -0.697741,0.157623 -1.721215,-1.247395 -1.224612,-1.762247 0.693795,-0.719289 3.399571,-1.807047 4.484144,-3.317181 0.982066,-1.367407 1.491444,-4.097175 1.549309,-4.807072 z"
       sodipodi:nodetypes="ssassas" />
  </g></symbol>
<symbol id="icon-helmet" viewBox="0 0 88.214851 59.163292"><g
       inkscape:label="Calque 1"
       inkscape:groupmode="layer"
       id="layer1"
       transform="translate(-6.4924241,-5.9527213)">
      <path
         id="path13290"
         style="fill:currentColor;fill-opacity:1;fill-rule:evenodd;stroke-width:8.95897;stroke-linecap:square;stroke-linejoin:bevel;paint-order:stroke markers fill"
         d="m 89.009919,28.352699 c 0.940908,4.654061 0.709675,11.191336 0.733363,16.585377 0.02439,5.553678 0.09943,10.237874 4.677202,17.356604 0.426827,0.663745 0.320372,1.058097 0.04925,1.542699 -0.241739,0.432079 -0.965625,0.842419 -1.713024,0.888729 -7.491351,0.464172 -20.958126,0.38474 -26.516766,0.384739 -1.297902,0 -10.795391,-0.403412 -16.585723,-3.591434 C 45.070047,58.995475 43.816123,53.766346 43.729377,52.346426 39.393066,52.018438 31.804908,50.862858 26.964813,50.433443 19.348843,49.872076 6.5938497,50.066944 6.4924241,48.579861 6.9678034,44.375597 10.476071,45.246913 15.817261,31.240763 22.648365,13.327625 31.860508,7.5038935 53.506317,6.0845386 c 8.190422,-0.5370607 14.573753,0.567225 20.71406,3.3083884 7.321439,3.268446 13.363294,11.905051 14.789542,18.959772 z"
         sodipodi:nodetypes="ssssssscccssss" />
    </g></symbol>
<symbol id="icon-noText" viewBox="0 0 65.468651 68.541557"><g aria-label="YOU MUST NOT SEE THIS TEXT" id="text394" style="font-weight:bold;font-size:21.3333px;font-family:Haettenschweiler;-inkscape-font-specification:'Haettenschweiler Bold';text-align:center;text-anchor:middle;stroke-width:15.3146;stroke-linecap:round;fill:currentColor">
      <path d="M 9.2395684,0.13541674 7.0937385,6.1562406 6.0208235,9.1666525 V 15.072893 H 2.7395787 V 9.2812356 Q 2.6458289,8.4895702 1.89583,6.1874905 1.2499977,4.2395769 -2.8964132e-7,0.13541674 H 3.1354114 L 4.6145758,5.427075 6.2916564,0.13541674 Z" id="path450" style="fill:currentColor" />
      <path d="M 9.635401,12.520814 V 2.9062457 q 0,-2.90624541594661 3.770827,-2.90624541594661 3.718745,0 3.718745,2.88541211594661 v 9.6145686 q 0,1.302081 -1.041665,2.010413 -1.031249,0.697916 -2.697913,0.697916 -3.749994,0 -3.749994,-2.687496 z m 4.281243,0.15625 V 2.4999963 q 0,-0.4479159 -0.531249,-0.4479159 -0.552082,0 -0.552082,0.4479159 V 12.677064 q 0,0.447916 0.552082,0.447916 0.531249,0 0.531249,-0.447916 z" id="path452" style="fill:currentColor" />
      <path d="m 17.791639,0.13541674 h 3.281245 V 12.677064 q 0,0.447916 0.552083,0.447916 0.541665,0 0.541665,-0.447916 V 0.13541674 h 3.281245 V 12.499981 q 0,1.291664 -1.072915,1.999996 -1.072915,0.708333 -2.749995,0.708333 -1.552081,0 -2.697913,-0.635416 -1.135415,-0.635416 -1.135415,-2.05208 z" id="path454" style="fill:currentColor" />
      <path d="M 41.385351,15.072893 H 38.458272 V 6.6874897 L 36.749941,15.072893 H 34.489528 L 32.531198,6.6874897 V 15.072893 H 29.968702 V 0.13541674 h 4.218744 l 1.499997,7.74998776 1.302081,-7.74998776 h 4.395827 z" id="path456" style="fill:currentColor" />
      <path d="M 42.093683,0.13541674 h 3.281245 V 12.677064 q 0,0.447916 0.552082,0.447916 0.541666,0 0.541666,-0.447916 V 0.13541674 h 3.281245 V 12.499981 q 0,1.291664 -1.072915,1.999996 -1.072915,0.708333 -2.749996,0.708333 -1.55208,0 -2.697912,-0.635416 -1.135415,-0.635416 -1.135415,-2.05208 z" id="path458" style="fill:currentColor" />
      <path d="m 50.447835,9.0937359 h 2.989578 v 3.4270781 q 0,0.510416 0.614583,0.510416 0.593749,0 0.593749,-0.510416 v -1.770831 q 0,-0.8124984 -1.083332,-1.9062467 Q 51.468666,6.8124895 50.95825,6.114574 50.447835,5.4166584 50.447835,4.5833264 V 2.9062457 q 0,-2.90624541594661 3.79166,-2.90624541594661 3.395828,0 3.395828,2.64582911594661 V 5.2291587 H 54.645745 V 2.479163 q 0,-0.4479159 -0.489583,-0.4479159 -0.572916,0 -0.572916,0.8645819 l 0.0625,0.9687485 q 0,0.833332 1.104165,1.937497 2.05208,1.9687468 2.604163,2.7499956 0.562499,0.7812488 0.562499,1.7708309 v 1.906247 q 0,2.979162 -3.802078,2.979162 -3.66666,0 -3.66666,-2.708329 z" id="path460" style="fill:currentColor" />
      <path d="M 65.468647,2.0833303 H 63.635316 V 15.072893 H 60.354072 V 2.0833303 H 58.520741 V 0.13541674 h 6.947906 z" id="path462" style="fill:currentColor" />
      <path d="m 16.249974,41.739518 h -3.374995 l -2.229163,-7.958321 v 7.958321 H 7.9062372 V 26.802041 h 3.7291608 l 1.874997,6.81249 v -6.81249 h 2.739579 z" id="path464" style="fill:currentColor" />
      <path d="M 16.937473,39.187438 V 29.57287 q 0,-2.906245 3.770827,-2.906245 3.718744,0 3.718744,2.885412 v 9.614568 q 0,1.302081 -1.041665,2.010414 -1.031248,0.697915 -2.697912,0.697915 -3.749994,0 -3.749994,-2.687496 z m 4.281243,0.15625 V 29.166621 q 0,-0.447916 -0.531249,-0.447916 -0.552082,0 -0.552082,0.447916 v 10.177067 q 0,0.447916 0.552082,0.447916 0.531249,0 0.531249,-0.447916 z" id="path466" style="fill:currentColor" />
      <path d="M 31.958282,28.749955 H 30.124951 V 41.739518 H 26.843707 V 28.749955 h -1.833331 v -1.947914 h 6.947906 z" id="path468" style="fill:currentColor" />
      <path d="m 36.374943,35.76036 h 2.989578 v 3.427078 q 0,0.510416 0.614583,0.510416 0.593749,0 0.593749,-0.510416 v -1.77083 q 0,-0.812499 -1.083332,-1.906247 -2.093747,-2.031247 -2.604162,-2.729162 -0.510416,-0.697916 -0.510416,-1.531248 V 29.57287 q 0,-2.906245 3.79166,-2.906245 3.395828,0 3.395828,2.645829 v 2.583329 h -2.989578 v -2.749995 q 0,-0.447916 -0.489583,-0.447916 -0.572916,0 -0.572916,0.864582 l 0.0625,0.968748 q 0,0.833332 1.104165,1.937497 2.05208,1.968747 2.604163,2.749996 0.562499,0.781248 0.562499,1.77083 v 1.906247 q 0,2.979162 -3.802077,2.979162 -3.666661,0 -3.666661,-2.708329 z" id="path470" style="fill:currentColor" />
      <path d="M 50.968669,41.739518 H 44.552012 V 26.802041 h 6.37499 v 1.927081 h -3.093745 v 4.031243 h 2.791662 v 1.812497 h -2.791662 v 5.249992 h 3.135412 z" id="path472" style="fill:currentColor" />
      <path d="M 57.926993,41.739518 H 51.510336 V 26.802041 h 6.37499 v 1.927081 h -3.093745 v 4.031243 h 2.791663 v 1.812497 h -2.791663 v 5.249992 h 3.135412 z" id="path474" style="fill:currentColor" />
      <path d="M 8.5156113,55.416579 H 6.6822808 V 68.406142 H 3.401036 V 55.416579 H 1.5677056 v -1.947913 h 6.9479057 z" id="path476" style="fill:currentColor" />
      <path d="m 16.567682,68.406142 h -3.281245 v -7.166655 h -0.916665 v 7.166655 H 9.0885269 V 53.468666 h 3.2812451 v 5.958324 h 0.916665 v -5.958324 h 3.281245 z" id="path478" style="fill:currentColor" />
      <path d="M 20.463508,68.406142 H 17.182263 V 53.468666 h 3.281245 z" id="path480" style="fill:currentColor" />
      <path d="m 21.119757,62.426985 h 2.989579 v 3.427078 q 0,0.510416 0.614582,0.510416 0.593749,0 0.593749,-0.510416 v -1.770831 q 0,-0.812498 -1.083332,-1.906247 -2.093746,-2.031246 -2.604162,-2.729162 -0.510416,-0.697916 -0.510416,-1.531248 v -1.67708 q 0,-2.906246 3.791661,-2.906246 3.395828,0 3.395828,2.64583 v 2.583329 h -2.989579 v -2.749996 q 0,-0.447916 -0.489583,-0.447916 -0.572915,0 -0.572915,0.864582 l 0.0625,0.968749 q 0,0.833332 1.104165,1.937497 2.05208,1.968746 2.604162,2.749995 0.562499,0.781249 0.562499,1.770831 v 1.906247 q 0,2.979162 -3.802077,2.979162 -3.666661,0 -3.666661,-2.708329 z" id="path482" style="fill:currentColor" />
      <path d="M 39.942644,55.416579 H 38.109313 V 68.406142 H 34.828068 V 55.416579 h -1.83333 v -1.947913 h 6.947906 z" id="path484" style="fill:currentColor" />
      <path d="M 46.9843,68.406142 H 40.567643 V 53.468666 h 6.37499 v 1.92708 h -3.093745 v 4.031244 h 2.791662 v 1.812497 h -2.791662 v 5.249992 H 46.9843 Z" id="path486" style="fill:currentColor" />
      <path d="m 56.807203,68.406142 h -3.520828 l -1.499998,-4.802076 -1.406247,4.802076 h -3.135412 l 2.583329,-8.48957 -1.916663,-6.447906 h 3.156245 l 1.166664,4.333326 1.302082,-4.333326 h 2.947912 l -2.23958,6.916656 z" id="path488" style="fill:currentColor" />
      <path d="M 64.078024,55.416579 H 62.244693 V 68.406142 H 58.963448 V 55.416579 h -1.83333 v -1.947913 h 6.947906 z" id="path490" style="fill:currentColor" />
    </g></symbol>
<symbol id="icon-rad" viewBox="0 0 92.133805 86.417879"><g
     inkscape:label="Calque 1"
     inkscape:groupmode="layer"
     id="layer1"
     transform="translate(-3.1743573,-6.4380088)">
    <circle
      style="fill:currentColor;fill-rule:evenodd;stroke-width:11.282;stroke-linecap:square;stroke-linejoin:bevel;paint-order:stroke markers fill"
      id="path10442"
      cx="49.246601"
      cy="46.502563"
      r="8" />
    <path
      id="rect10498"
      style="fill:currentColor;fill-rule:evenodd;stroke-width:13.2292;stroke-linecap:square;stroke-linejoin:bevel;paint-order:stroke markers fill"
      d="M 26.786929,6.7444989 43.020796,35.486434 c 0,0 -3.108009,1.883013 -4.801333,5.050304 -1.693324,3.167291 -1.674473,6.12711 -1.674473,6.12711 H 3.1901543 c 0,0 -0.6295019,-11.143295 6.0591372,-23.403461 C 15.937931,11.000221 26.786929,6.7444989 26.786929,6.7444989 Z"
      sodipodi:nodetypes="cczcczc" />
    <path
      id="rect10498-7"
      style="fill:currentColor;fill-rule:evenodd;stroke-width:13.2292;stroke-linecap:square;stroke-linejoin:bevel;paint-order:stroke markers fill"
      d="m 95.160919,46.571132 -33.009592,0.06389 c 0,0 -0.118102,-3.632012 -2.049007,-6.660326 -1.930904,-3.028314 -4.520108,-4.462505 -4.520108,-4.462505 L 71.929591,6.4380088 c 0,0 10.021723,4.9126732 17.430323,16.7516852 7.408599,11.839014 5.801005,23.381438 5.801005,23.381438 z"
      sodipodi:nodetypes="cczcczc"
      inkscape:transform-center-x="-25.890311"
      inkscape:transform-center-y="-19.876429" />
    <path
      id="rect10498-7-3"
      style="fill:currentColor;fill-rule:evenodd;stroke-width:13.2292;stroke-linecap:square;stroke-linejoin:bevel;paint-order:stroke markers fill"
      d="M 26.100147,85.894208 42.900356,57.479595 c 0,0 3.183146,1.753009 6.772868,1.639095 3.589721,-0.113914 6.144936,-1.607821 6.144936,-1.607821 l 16.651092,28.901314 c 0,0 -9.341194,6.108305 -23.30343,6.433138 -13.962238,0.32483 -23.065675,-6.951113 -23.065675,-6.951113 z"
      sodipodi:nodetypes="cczcczc"
      inkscape:transform-center-x="0.49475346"
      inkscape:transform-center-y="28.836776" />
   </g></symbol>
<symbol id="icon-shield" viewBox="0 0 96.953873 111.59167"><sodipodi:namedview
     id="namedview10232"
     pagecolor="#505050"
     bordercolor="#eeeeee"
     borderopacity="1"
     inkscape:showpageshadow="0"
     inkscape:pageopacity="0"
     inkscape:pagecheckerboard="0"
     inkscape:deskcolor="#505050"
     inkscape:document-units="mm"
     showgrid="false"
     inkscape:zoom="1.0544998"
     inkscape:cx="138.92843"
     inkscape:cy="275.01191"
     inkscape:window-width="1920"
     inkscape:window-height="1021"
     inkscape:window-x="-8"
     inkscape:window-y="-8"
     inkscape:window-maximized="1"
     inkscape:current-layer="layer1" />
  <defs
     id="defs10227" />
      <g
          inkscape:label="Calque 1"
          inkscape:groupmode="layer"
          id="layer1"
          transform="translate(-1.1498322,-1.8654663)">
         <path
             d="m 51.82195,1.8685263 c -4.378023,-0.00408 -0.01244,-0.00408 -4.390364,0 L 4.4426054,2.4174947 C 2.4303528,3.3321424 1.1498322,5.1615069 1.1498322,7.356689 v 57.623493 c 0,26.708072 21.7688918,48.476948 48.4769358,48.476948 26.70805,0 48.476935,-21.768876 48.476935,-48.476948 V 7.356689 c 0,-2.1951821 -1.280521,-4.0245466 -3.292773,-4.9391943 z M 87.310729,64.979975 c 0,20.85423 -16.829732,37.683985 -37.683961,37.683985 V 57.479783 H 11.942813 V 11.015072 l 37.683955,0.02074 V 34.5589 57.477569 h 37.683961 z"
             id="path6148"
             sodipodi:nodetypes="cccsssssccsccccccccs"
             style="stroke-width:1.82932;fill:currentColor" />
      </g></symbol>
<symbol id="icon-weight" viewBox="0 0 86.329277 86.191597"><defs
     id="defs1097" />
  <sodipodi:namedview
     id="namedview1095"
     pagecolor="#505050"
     bordercolor="#eeeeee"
     borderopacity="1"
     inkscape:showpageshadow="0"
     inkscape:pageopacity="0"
     inkscape:pagecheckerboard="0"
     inkscape:deskcolor="#505050"
     showgrid="false"
     inkscape:zoom="3.4333299"
     inkscape:cx="-66.844727"
     inkscape:cy="35.242754"
     inkscape:window-width="1920"
     inkscape:window-height="1021"
     inkscape:window-x="-8"
     inkscape:window-y="-8"
     inkscape:window-maximized="1"
     inkscape:current-layer="icon-weight" />
    <path
       d="M 88.315911,147.16952 76.358458,101.20031 c -0.994004,-3.835557 -4.584969,-6.529076 -8.699096,-6.521916 h -3.34809 c 0.358729,-1.411445 0.538088,-2.858713 0.538088,-4.309595 0,-6.672731 -3.70308,-12.835531 -9.71519,-16.171963 -6.012116,-3.336467 -13.418177,-3.336365 -19.430384,0 -6.01221,3.336331 -9.715194,9.499058 -9.715194,16.171963 0,1.450882 0.179364,2.89815 0.538084,4.309595 h -3.348084 c -4.114129,-0.0069 -7.705099,2.686359 -8.699096,6.521916 L 2.5220407,147.16952 c -0.6688713,2.57499 -0.067248,5.30437 1.6329107,7.3982 1.6964278,2.09012 4.3046838,3.31483 7.0660916,3.3184 h 68.396632 c 2.761403,-0.003 5.369661,-1.22818 7.066087,-3.3184 1.70016,-2.09373 2.301764,-4.82321 1.632916,-7.3982 z M 34.956014,90.369075 c 0,-5.552266 4.685791,-10.056249 10.463251,-10.056249 5.77746,0 10.463247,4.503527 10.463247,10.056249 0.0076,1.493972 -0.521391,3.575303 -1.235929,4.905504 -0.714539,1.3302 -3.525546,5.699921 -9.007683,5.699871 -5.482137,-6e-5 -8.668741,-3.852172 -9.414638,-5.16669 -0.745898,-1.314519 -1.274752,-3.944713 -1.267294,-5.438685 z"
       id="path6215"
       style="stroke-width:0.937807;fill:currentColor"
       transform="translate(-2.2547141,-71.694524)" /></symbol>
</svg>
