<?xml version="1.0" encoding="UTF-8" standalone="no"?>
<svg
   version="1.1"
   x="0px"
   y="0px"
   viewBox="0 0 65.468651 68.541557"
   xml:space="preserve"
   id="svg262"
   sodipodi:docname="noText.svg"
   width="65.468651"
   height="68.541557"
   inkscape:version="1.2.1 (9c6d41e410, 2022-07-14)"
   xmlns:inkscape="http://www.inkscape.org/namespaces/inkscape"
   xmlns:sodipodi="http://sodipodi.sourceforge.net/DTD/sodipodi-0.dtd"
   xmlns="http://www.w3.org/2000/svg"
   xmlns:svg="http://www.w3.org/2000/svg"><g
     aria-label="YOU MUST
NOT SEE
THIS TEXT"
     id="text394"
     style="font-weight:bold;font-size:21.3333px;font-family:Haettenschweiler;-inkscape-font-specification:'Haettenschweiler Bold';text-align:center;text-anchor:middle;stroke-width:15.3146;stroke-linecap:round"><path
       d="M 9.2395684,0.13541674 7.0937385,6.1562406 6.0208235,9.1666525 V 15.072893 H 2.7395787 V 9.2812356 Q 2.6458289,8.4895702 1.89583,6.1874905 1.2499977,4.2395769 -2.8964132e-7,0.13541674 H 3.1354114 L 4.6145758,5.427075 6.2916564,0.13541674 Z"
       id="path450" /><path
       d="M 9.635401,12.520814 V 2.9062457 q 0,-2.90624541594661 3.770827,-2.90624541594661 3.718745,0 3.718745,2.88541211594661 v 9.6145686 q 0,1.302081 -1.041665,2.010413 -1.031249,0.697916 -2.697913,0.697916 -3.749994,0 -3.749994,-2.687496 z m 4.281243,0.15625 V 2.4999963 q 0,-0.4479159 -0.531249,-0.4479159 -0.552082,0 -0.552082,0.4479159 V 12.677064 q 0,0.447916 0.552082,0.447916 0.531249,0 0.531249,-0.447916 z"
       id="path452" /><path
       d="m 17.791639,0.13541674 h 3.281245 V 12.677064 q 0,0.447916 0.552083,0.447916 0.541665,0 0.541665,-0.447916 V 0.13541674 h 3.281245 V 12.499981 q 0,1.291664 -1.072915,1.999996 -1.072915,0.708333 -2.749995,0.708333 -1.552081,0 -2.697913,-0.635416 -1.135415,-0.635416 -1.135415,-2.05208 z"
       id="path454" /><path
       d="M 41.385351,15.072893 H 38.458272 V 6.6874897 L 36.749941,15.072893 H 34.489528 L 32.531198,6.6874897 V 15.072893 H 29.968702 V 0.13541674 h 4.218744 l 1.499997,7.74998776 1.302081,-7.74998776 h 4.395827 z"
       id="path456" /><path
       d="m 42.093683,0.13541674 h 3.281245 V 12.677064 q 0,0.447916 0.552082,0.447916 0.541666,0 0.541666,-0.447916 V 0.13541674 h 3.281245 V 12.499981 q 0,1.291664 -1.072915,1.999996 -1.072915,0.708333 -2.749996,0.708333 -1.55208,0 -2.697912,-0.635416 -1.135415,-0.635416 -1.135415,-2.05208 z"
       id="path458" /><path
       d="m 50.447835,9.0937359 h 2.989578 v 3.4270781 q 0,0.510416 0.614583,0.510416 0.593749,0 0.593749,-0.510416 v -1.770831 q 0,-0.8124984 -1.083332,-1.9062467 Q 51.468666,6.8124895 50.95825,6.114574 50.447835,5.4166584 50.447835,4.5833264 V 2.9062457 q 0,-2.90624541594661 3.79166,-2.90624541594661 3.395828,0 3.395828,2.64582911594661 V 5.2291587 H 54.645745 V 2.479163 q 0,-0.4479159 -0.489583,-0.4479159 -0.572916,0 -0.572916,0.8645819 l 0.0625,0.9687485 q 0,0.833332 1.104165,1.937497 2.05208,1.9687468 2.604163,2.7499956 0.562499,0.7812488 0.562499,1.7708309 v 1.906247 q 0,2.979162 -3.802078,2.979162 -3.66666,0 -3.66666,-2.708329 z"
       id="path460" /><path
       d="M 65.468647,2.0833303 H 63.635316 V 15.072893 H 60.354072 V 2.0833303 H 58.520741 V 0.13541674 h 6.947906 z"
       id="path462" /><path
       d="m 16.249974,41.739518 h -3.374995 l -2.229163,-7.958321 v 7.958321 H 7.9062372 V 26.802041 h 3.7291608 l 1.874997,6.81249 v -6.81249 h 2.739579 z"
       id="path464" /><path
       d="M 16.937473,39.187438 V 29.57287 q 0,-2.906245 3.770827,-2.906245 3.718744,0 3.718744,2.885412 v 9.614568 q 0,1.302081 -1.041665,2.010414 -1.031248,0.697915 -2.697912,0.697915 -3.749994,0 -3.749994,-2.687496 z m 4.281243,0.15625 V 29.166621 q 0,-0.447916 -0.531249,-0.447916 -0.552082,0 -0.552082,0.447916 v 10.177067 q 0,0.447916 0.552082,0.447916 0.531249,0 0.531249,-0.447916 z"
       id="path466" /><path
       d="M 31.958282,28.749955 H 30.124951 V 41.739518 H 26.843707 V 28.749955 h -1.833331 v -1.947914 h 6.947906 z"
       id="path468" /><path
       d="m 36.374943,35.76036 h 2.989578 v 3.427078 q 0,0.510416 0.614583,0.510416 0.593749,0 0.593749,-0.510416 v -1.77083 q 0,-0.812499 -1.083332,-1.906247 -2.093747,-2.031247 -2.604162,-2.729162 -0.510416,-0.697916 -0.510416,-1.531248 V 29.57287 q 0,-2.906245 3.79166,-2.906245 3.395828,0 3.395828,2.645829 v 2.583329 h -2.989578 v -2.749995 q 0,-0.447916 -0.489583,-0.447916 -0.572916,0 -0.572916,0.864582 l 0.0625,0.968748 q 0,0.833332 1.104165,1.937497 2.05208,1.968747 2.604163,2.749996 0.562499,0.781248 0.562499,1.77083 v 1.906247 q 0,2.979162 -3.802077,2.979162 -3.666661,0 -3.666661,-2.708329 z"
       id="path470" /><path
       d="M 50.968669,41.739518 H 44.552012 V 26.802041 h 6.37499 v 1.927081 h -3.093745 v 4.031243 h 2.791662 v 1.812497 h -2.791662 v 5.249992 h 3.135412 z"
       id="path472" /><path
       d="M 57.926993,41.739518 H 51.510336 V 26.802041 h 6.37499 v 1.927081 h -3.093745 v 4.031243 h 2.791663 v 1.812497 h -2.791663 v 5.249992 h 3.135412 z"
       id="path474" /><path
       d="M 8.5156113,55.416579 H 6.6822808 V 68.406142 H 3.401036 V 55.416579 H 1.5677056 v -1.947913 h 6.9479057 z"
       id="path476" /><path
       d="m 16.567682,68.406142 h -3.281245 v -7.166655 h -0.916665 v 7.166655 H 9.0885269 V 53.468666 h 3.2812451 v 5.958324 h 0.916665 v -5.958324 h 3.281245 z"
       id="path478" /><path
       d="M 20.463508,68.406142 H 17.182263 V 53.468666 h 3.281245 z"
       id="path480" /><path
       d="m 21.119757,62.426985 h 2.989579 v 3.427078 q 0,0.510416 0.614582,0.510416 0.593749,0 0.593749,-0.510416 v -1.770831 q 0,-0.812498 -1.083332,-1.906247 -2.093746,-2.031246 -2.604162,-2.729162 -0.510416,-0.697916 -0.510416,-1.531248 v -1.67708 q 0,-2.906246 3.791661,-2.906246 3.395828,0 3.395828,2.64583 v 2.583329 h -2.989579 v -2.749996 q 0,-0.447916 -0.489583,-0.447916 -0.572915,0 -0.572915,0.864582 l 0.0625,0.968749 q 0,0.833332 1.104165,1.937497 2.05208,1.968746 2.604162,2.749995 0.562499,0.781249 0.562499,1.770831 v 1.906247 q 0,2.979162 -3.802077,2.979162 -3.666661,0 -3.666661,-2.708329 z"
       id="path482" /><path
       d="M 39.942644,55.416579 H 38.109313 V 68.406142 H 34.828068 V 55.416579 h -1.83333 v -1.947913 h 6.947906 z"
       id="path484" /><path
       d="M 46.9843,68.406142 H 40.567643 V 53.468666 h 6.37499 v 1.92708 h -3.093745 v 4.031244 h 2.791662 v 1.812497 h -2.791662 v 5.249992 H 46.9843 Z"
       id="path486" /><path
       d="m 56.807203,68.406142 h -3.520828 l -1.499998,-4.802076 -1.406247,4.802076 h -3.135412 l 2.583329,-8.48957 -1.916663,-6.447906 h 3.156245 l 1.166664,4.333326 1.302082,-4.333326 h 2.947912 l -2.23958,6.916656 z"
       id="path488" /><path
       d="M 64.078024,55.416579 H 62.244693 V 68.406142 H 58.963448 V 55.416579 h -1.83333 v -1.947913 h 6.947906 z"
       id="path490" /></g><defs
     id="defs266" /><sodipodi:namedview
     id="namedview264"
     pagecolor="#ffffff"
     bordercolor="#000000"
     borderopacity="0.25"
     inkscape:showpageshadow="2"
     inkscape:pageopacity="0.0"
     inkscape:pagecheckerboard="0"
     inkscape:deskcolor="#d1d1d1"
     showgrid="false"
     inkscape:zoom="5.936"
     inkscape:cx="44.053235"
     inkscape:cy="32.008086"
     inkscape:window-width="1680"
     inkscape:window-height="987"
     inkscape:window-x="1912"
     inkscape:window-y="9"
     inkscape:window-maximized="1"
     inkscape:current-layer="svg262" /></svg>
